<svg width="98" height="592" viewBox="0 0 98 592" fill="none" xmlns="http://www.w3.org/2000/svg">
<path d="M81.375 533.312L96 533.312L96 579.125L81.375 579.125L81.375 533.312ZM5 573.062L96 573.062L96 591.812L5 591.812L5 573.062ZM81.375 461.5L96 461.5L96 509.937L81.375 509.937L81.375 461.5ZM5 503.812L96 503.812L96 522.562L5 522.562L5 503.812ZM42.0625 467.812L56.3125 467.812L56.3125 509.937L42.0625 509.937L42.0625 467.812ZM4.99999 461.562L19.6875 461.562L19.6875 509.937L5 509.937L4.99999 461.562ZM4.99999 408.625L96 408.625L96 427.312L4.99999 427.312L4.99999 408.625ZM4.99999 380.625L19.6875 380.625L19.6875 454.875L4.99999 454.875L4.99999 380.625ZM-1.09005e-05 354.625L9.49999 354.625C12.2083 354.625 15 355.146 17.875 356.187C20.75 357.187 23.4792 358.542 26.0625 360.25C28.6042 361.958 30.7708 363.833 32.5625 365.875L27.6875 374.312C25.2292 372.771 22.5625 371.458 19.6875 370.375C16.7708 369.292 13.3958 368.75 9.56249 368.75L-1.02831e-05 368.75L-1.09005e-05 354.625ZM72.1875 293.187C70.5625 293.187 69.1042 293.437 67.8125 293.937C66.4792 294.396 65.2708 295.271 64.1875 296.562C63.0625 297.854 61.9583 299.667 60.875 302C59.7917 304.333 58.6667 307.354 57.5 311.062C56.1667 315.187 54.6667 319.104 53 322.812C51.3333 326.479 49.3958 329.729 47.1875 332.562C44.9375 335.354 42.3333 337.562 39.375 339.187C36.4167 340.771 32.9792 341.562 29.0625 341.562C25.2708 341.562 21.8333 340.729 18.75 339.062C15.625 337.396 12.9583 335.062 10.75 332.062C8.49999 329.062 6.77082 325.521 5.56249 321.437C4.35415 317.312 3.74999 312.792 3.74999 307.875C3.74999 301.167 4.95832 295.312 7.37499 290.312C9.79165 285.312 13.1042 281.437 17.3125 278.687C21.5208 275.896 26.3333 274.5 31.75 274.5L31.75 293.125C29.0833 293.125 26.75 293.687 24.75 294.812C22.7083 295.896 21.1042 297.562 19.9375 299.812C18.7708 302.021 18.1875 304.812 18.1875 308.187C18.1875 311.437 18.6875 314.146 19.6875 316.312C20.6458 318.479 21.9583 320.104 23.625 321.187C25.25 322.271 27.0833 322.812 29.125 322.812C30.6667 322.812 32.0625 322.437 33.3125 321.687C34.5625 320.896 35.7292 319.729 36.8125 318.187C37.8958 316.646 38.9167 314.75 39.875 312.5C40.8333 310.25 41.7708 307.646 42.6875 304.687C44.1875 299.729 45.875 295.375 47.75 291.625C49.625 287.833 51.7292 284.667 54.0625 282.125C56.3958 279.583 59.0417 277.667 62 276.375C64.9583 275.083 68.3125 274.437 72.0625 274.437C76.0208 274.437 79.5625 275.208 82.6875 276.75C85.8125 278.292 88.4583 280.521 90.625 283.437C92.7917 286.354 94.4375 289.833 95.5625 293.875C96.6875 297.917 97.25 302.437 97.25 307.437C97.25 311.937 96.6667 316.375 95.5 320.75C94.2917 325.125 92.4792 329.104 90.0625 332.687C87.6458 336.229 84.5625 339.062 80.8125 341.187C77.0625 343.312 72.625 344.375 67.5 344.375L67.5 325.562C70.3333 325.562 72.7292 325.125 74.6875 324.25C76.6458 323.375 78.2292 322.146 79.4375 320.562C80.6458 318.937 81.5208 317.021 82.0625 314.812C82.6042 312.562 82.875 310.104 82.875 307.437C82.875 304.187 82.4167 301.521 81.5 299.437C80.5833 297.312 79.3125 295.75 77.6875 294.75C76.0625 293.708 74.2292 293.187 72.1875 293.187ZM48.4375 157.687L84.5 157.687C86.2083 159.104 88.0625 161.292 90.0625 164.25C92.0208 167.208 93.7083 171.021 95.125 175.687C96.5416 180.354 97.25 186 97.25 192.625C97.25 198.5 96.2916 203.854 94.375 208.687C92.4166 213.521 89.5625 217.687 85.8125 221.187C82.0625 224.646 77.4792 227.312 72.0625 229.187C66.6042 231.062 60.375 232 53.375 232L47.6875 232C40.6875 232 34.4583 231.104 29 229.312C23.5417 227.479 18.9375 224.875 15.1875 221.5C11.4375 218.125 8.58332 214.104 6.62498 209.437C4.66665 204.771 3.68748 199.583 3.68748 193.875C3.68748 185.958 4.97915 179.458 7.56248 174.375C10.1041 169.292 13.6458 165.417 18.1875 162.75C22.6875 160.042 27.8541 158.375 33.6875 157.75L33.6875 175.937C30.6041 176.396 27.9166 177.271 25.625 178.562C23.3333 179.854 21.5416 181.708 20.25 184.125C18.9583 186.5 18.3125 189.583 18.3125 193.375C18.3125 196.5 18.9583 199.292 20.25 201.75C21.5 204.167 23.3541 206.208 25.8125 207.875C28.2708 209.542 31.3125 210.812 34.9375 211.687C38.5625 212.562 42.7708 213 47.5625 213L53.375 213C58.125 213 62.3333 212.542 66 211.625C69.625 210.708 72.6875 209.354 75.1875 207.562C77.6458 205.729 79.5 203.479 80.75 200.812C82 198.146 82.625 195.042 82.625 191.5C82.625 188.542 82.375 186.083 81.875 184.125C81.375 182.125 80.7708 180.521 80.0625 179.312C79.3125 178.062 78.6041 177.104 77.9375 176.437L61.8125 176.437L61.8125 193.562L48.4375 193.562L48.4375 157.687ZM81.375 81.5L96 81.5L96 129.937L81.375 129.937L81.375 81.5ZM4.99998 123.812L96 123.812L96 142.562L4.99998 142.562L4.99998 123.812ZM42.0625 87.8125L56.3125 87.8125L56.3125 129.937L42.0625 129.937L42.0625 87.8125ZM4.99998 81.5625L19.6875 81.5625L19.6875 129.937L4.99998 129.937L4.99998 81.5625ZM4.99997 28.625L96 28.625L96 47.3125L4.99998 47.3125L4.99997 28.625ZM4.99997 0.624999L19.6875 0.624998L19.6875 74.875L4.99998 74.875L4.99997 0.624999Z" fill="#E01D28" fill-opacity="0.1"/>
</svg>
