<svg width="95" height="542" viewBox="0 0 95 542" fill="none" xmlns="http://www.w3.org/2000/svg">
<path d="M25.8125 51.8125C27.4375 51.8125 28.8958 51.5625 30.1875 51.0625C31.5208 50.6042 32.7292 49.7292 33.8125 48.4375C34.9375 47.1458 36.0417 45.3333 37.125 43C38.2083 40.6667 39.3333 37.6458 40.5 33.9375C41.8333 29.8125 43.3333 25.8958 45 22.1875C46.6667 18.5208 48.6042 15.2708 50.8125 12.4375C53.0625 9.64583 55.6667 7.4375 58.625 5.8125C61.5833 4.22916 65.0208 3.4375 68.9375 3.4375C72.7292 3.4375 76.1667 4.27083 79.25 5.9375C82.375 7.60417 85.0417 9.9375 87.25 12.9375C89.5 15.9375 91.2292 19.4792 92.4375 23.5625C93.6458 27.6875 94.25 32.2083 94.25 37.125C94.25 43.8333 93.0417 49.6875 90.625 54.6875C88.2083 59.6875 84.8958 63.5625 80.6875 66.3125C76.4792 69.1042 71.6667 70.5 66.25 70.5L66.25 51.875C68.9167 51.875 71.25 51.3125 73.25 50.1875C75.2917 49.1042 76.8958 47.4375 78.0625 45.1875C79.2292 42.9792 79.8125 40.1875 79.8125 36.8125C79.8125 33.5625 79.3125 30.8542 78.3125 28.6875C77.3542 26.5208 76.0417 24.8958 74.375 23.8125C72.75 22.7292 70.9167 22.1875 68.875 22.1875C67.3333 22.1875 65.9375 22.5625 64.6875 23.3125C63.4375 24.1042 62.2708 25.2708 61.1875 26.8125C60.1042 28.3542 59.0833 30.25 58.125 32.5C57.1667 34.75 56.2292 37.3542 55.3125 40.3125C53.8125 45.2708 52.125 49.625 50.25 53.375C48.375 57.1667 46.2708 60.3333 43.9375 62.875C41.6042 65.4167 38.9583 67.3333 36 68.625C33.0417 69.9167 29.6875 70.5625 25.9375 70.5625C21.9792 70.5625 18.4375 69.7917 15.3125 68.25C12.1875 66.7083 9.54166 64.4792 7.375 61.5625C5.20833 58.6458 3.5625 55.1667 2.4375 51.125C1.3125 47.0833 0.749998 42.5625 0.749998 37.5625C0.749998 33.0625 1.33333 28.625 2.5 24.25C3.70833 19.875 5.52083 15.8958 7.9375 12.3125C10.3542 8.77083 13.4375 5.9375 17.1875 3.8125C20.9375 1.6875 25.375 0.624996 30.5 0.624996L30.5 19.4375C27.6667 19.4375 25.2708 19.875 23.3125 20.75C21.3542 21.625 19.7708 22.8542 18.5625 24.4375C17.3542 26.0625 16.4792 27.9792 15.9375 30.1875C15.3958 32.4375 15.125 34.8958 15.125 37.5625C15.125 40.8125 15.5833 43.4792 16.5 45.5625C17.4167 47.6875 18.6875 49.25 20.3125 50.25C21.9375 51.2917 23.7708 51.8125 25.8125 51.8125ZM93 124L1.99999 124L1.99999 105.312L93 105.312L93 124ZM93 152L78.3125 152L78.3125 77.75L93 77.75L93 152ZM77.4375 192.937L1.99999 168.187L1.99999 148.25L93 182.062L93 194.75L77.4375 192.937ZM1.99999 213.5L77.4375 188.687L93 186.687L93 199.5L1.99999 233.5L1.99999 213.5ZM35.875 212.375L21.1875 212.375L21.1875 164.312L35.875 164.312L35.875 212.375ZM93 241.937L93 275.875C93 282.833 91.9583 288.812 89.875 293.812C87.7917 298.854 84.7083 302.729 80.625 305.437C76.5417 308.146 71.5208 309.5 65.5625 309.5C60.6875 309.5 56.5 308.667 53 307C49.5417 305.375 46.6458 303.062 44.3125 300.062C42.0208 297.104 40.1875 293.625 38.8125 289.625L35.6875 283.687L35.6875 254.187L50.3125 254.062L50.3125 276C50.3125 279.292 50.8958 282.021 52.0625 284.187C53.2292 286.354 54.8542 287.979 56.9375 289.062C59.0208 290.187 61.4375 290.75 64.1875 290.75C67.1042 290.75 69.625 290.208 71.75 289.125C73.875 288.042 75.5 286.396 76.625 284.187C77.75 281.979 78.3125 279.208 78.3125 275.875L78.3125 260.687L1.99999 260.687L1.99999 241.937L93 241.937ZM1.99999 292.812L42.5625 272.062L42.6875 291.875L2.87498 312.875L1.99998 312.875L1.99999 292.812ZM93 360.875L1.99998 360.875L1.99998 342.187L93 342.187L93 360.875ZM93 388.875L78.3125 388.875L78.3125 314.625L93 314.625L93 388.875ZM16.625 460.625L1.99998 460.625L1.99998 412.187L16.625 412.187L16.625 460.625ZM93 418.312L1.99998 418.312L1.99998 399.562L93 399.562L93 418.312ZM55.9375 454.312L41.6875 454.312L41.6875 412.187L55.9375 412.187L55.9375 454.312ZM93 460.562L78.3125 460.562L78.3125 412.187L93 412.187L93 460.562ZM1.99998 499.5L1.99998 479.687L16.625 479.812L16.625 499.5C16.625 504.417 17.7291 508.562 19.9375 511.937C22.1875 515.312 25.4583 517.854 29.75 519.562C34.0416 521.312 39.2291 522.187 45.3125 522.187L49.75 522.187C54.4166 522.187 58.5208 521.687 62.0625 520.687C65.6041 519.729 68.5833 518.292 71 516.375C73.4166 514.458 75.2291 512.104 76.4375 509.312C77.6875 506.521 78.3125 503.312 78.3125 499.687L78.3125 479.312L93 479.312L93 499.687C93 505.771 91.9583 511.333 89.875 516.375C87.8333 521.458 84.8958 525.854 81.0625 529.562C77.2291 533.271 72.6458 536.125 67.3125 538.125C62.0208 540.167 56.125 541.187 49.625 541.187L45.3125 541.187C38.8541 541.187 32.9583 540.167 27.625 538.125C22.2916 536.125 17.7083 533.271 13.875 529.562C10.0833 525.896 7.14581 521.5 5.06247 516.375C3.02081 511.292 1.99997 505.667 1.99998 499.5ZM93 490.312L1.99998 490.312L1.99998 471.562L93 471.562L93 490.312Z" fill="#E01D28" fill-opacity="0.1"/>
</svg>
